<!-- sprite.svg -->
<svg  xmlns="http://www.w3.org/2000/svg" style="display: none;">

  <!-- Symbol for wa-desktop -->
  <symbol id="desktop-icon">
    <title>wa-desktop</title>
      <rect x="9" y="2.04663" width="58" height="37.8605" fill="#00A884"></rect>
      <path
        fill-rule="evenodd"
        clip-rule="evenodd"
        d="M10 3H66V38.8837H10V3ZM7 38.8837V3C7 1.34315 8.34315 0 10 0H66C67.6569 0 69 1.34315 69 3V38.8837H76V40C76 42.2091 74.2091 44 72 44H66H10H4C1.79086 44 0 42.2091 0 40V38.8837H7Z"
        fill="#54656F"
      ></path>
      <path
        fill-rule="evenodd"
        clip-rule="evenodd"
        d="M10 3H66V38.8837H10V3ZM7 38.8837V3C7 1.34315 8.34315 0 10 0H66C67.6569 0 69 1.34315 69 3V38.8837H76V40C76 42.2091 74.2091 44 72 44H66H10H4C1.79086 44 0 42.2091 0 40V38.8837H7Z"
        fill="black"
        fill-opacity="0.6"
      ></path>
      <rect x="21" y="17" width="34" height="34" rx="2" fill="#25D366"></rect>
      <path
        fill-rule="evenodd"
        clip-rule="evenodd"
        d="M27.0892 33.9037C27.0917 27.8907 32.0063 23 38.0448 23C40.9738 23.0012 43.7255 24.1367 45.7937 26.1974C47.8619 28.258 49.0011 30.9991 49 33.9124C48.9975 39.9254 44.0826 44.8167 38.0447 44.8167C36.2561 44.8161 34.5003 44.3824 32.9299 43.5562L27.4448 44.9881C27.1805 45.0571 26.9406 44.8141 27.0131 44.5507L28.4779 39.2259C27.5663 37.6025 27.0885 35.7738 27.0892 33.9037ZM38.0393 42.8705H38.0357C36.4369 42.8699 34.8688 42.4424 33.5009 41.6345L33.1755 41.4423L29.8034 42.3227L30.7034 39.0504L30.4916 38.7149C29.5997 37.3031 29.1286 35.6714 29.1294 33.9958C29.1313 29.1067 33.1283 25.1291 38.0429 25.1291C40.4227 25.1299 42.6597 26.0534 44.342 27.7296C46.0241 29.4057 46.95 31.6336 46.9491 34.003C46.9471 38.8925 42.9502 42.8705 38.0393 42.8705ZM41.0435 35.2728C41.2876 35.3625 42.5971 36.0117 42.8635 36.146C42.9154 36.1722 42.964 36.1959 43.0091 36.2178C43.1949 36.3083 43.3204 36.3694 43.3739 36.4595C43.4405 36.5714 43.4405 37.1088 43.2186 37.7358C42.9966 38.3627 41.9325 38.9349 41.4208 39.0119C40.9619 39.081 40.3812 39.1099 39.7432 38.9056C39.3564 38.7819 38.8602 38.6168 38.2248 38.3402C35.7281 37.2539 34.0409 34.8157 33.7217 34.3544C33.6993 34.322 33.6836 34.2994 33.6749 34.2877L33.6727 34.2848C33.5318 34.0953 32.5873 32.8255 32.5873 31.5112C32.5873 30.275 33.1899 29.627 33.4673 29.3287C33.4863 29.3083 33.5038 29.2895 33.5195 29.2722C33.7636 29.0036 34.0522 28.9364 34.2298 28.9364C34.4073 28.9364 34.5851 28.9381 34.7402 28.9459C34.7594 28.9468 34.7793 28.9467 34.7999 28.9466C34.9551 28.9457 35.1486 28.9446 35.3395 29.4066C35.4128 29.584 35.5199 29.8469 35.633 30.1243C35.8624 30.687 36.1161 31.3095 36.1607 31.3994C36.2273 31.5338 36.2717 31.6904 36.1829 31.8696C36.1696 31.8965 36.1573 31.9218 36.1455 31.946C36.0788 32.0832 36.0298 32.1842 35.9165 32.3173C35.8722 32.3695 35.8264 32.4257 35.7806 32.482C35.6888 32.5946 35.597 32.7073 35.517 32.7876C35.3837 32.9214 35.2449 33.0666 35.4003 33.3353C35.5556 33.604 36.0902 34.4829 36.8819 35.1945C37.7331 35.9596 38.4729 36.2829 38.8478 36.4468C38.921 36.4788 38.9803 36.5047 39.0238 36.5267C39.2901 36.6611 39.4455 36.6386 39.6009 36.4595C39.7562 36.2804 40.2667 35.6758 40.4443 35.4071C40.6218 35.1385 40.7994 35.1832 41.0435 35.2728Z"
        fill="white"
      ></path>
  </symbol>

   <symbol
      id="whatsapp-icon"
    >
      <path
        fill="#00E676"
        d="M10.7 32.8l.6.3c2.5 1.5 5.3 2.2 8.1 2.2 8.8 0 16-7.2 16-16 0-4.2-1.7-8.3-4.7-11.3s-7-4.7-11.3-4.7c-8.8 0-16 7.2-15.9 16.1 0 3 .9 5.9 2.4 8.4l.4.6-1.6 5.9 6-1.5z"
      ></path>
      <path
        fill="#FFF"
        d="M32.4 6.4C29 2.9 24.3 1 19.5 1 9.3 1 1.1 9.3 1.2 19.4c0 3.2.9 6.3 2.4 9.1L1 38l9.7-2.5c2.7 1.5 5.7 2.2 8.7 2.2 10.1 0 18.3-8.3 18.3-18.4 0-4.9-1.9-9.5-5.3-12.9zM19.5 34.6c-2.7 0-5.4-.7-7.7-2.1l-.6-.3-5.8 1.5L6.9 28l-.4-.6c-4.4-7.1-2.3-16.5 4.9-20.9s16.5-2.3 20.9 4.9 2.3 16.5-4.9 20.9c-2.3 1.5-5.1 2.3-7.9 2.3zm8.8-11.1l-1.1-.5s-1.6-.7-2.6-1.2c-.1 0-.2-.1-.3-.1-.3 0-.5.1-.7.2 0 0-.1.1-1.5 1.7-.1.2-.3.3-.5.3h-.1c-.1 0-.3-.1-.4-.2l-.5-.2c-1.1-.5-2.1-1.1-2.9-1.9-.2-.2-.5-.4-.7-.6-.7-.7-1.4-1.5-1.9-2.4l-.1-.2c-.1-.1-.1-.2-.2-.4 0-.2 0-.4.1-.5 0 0 .4-.5.7-.8.2-.2.3-.5.5-.7.2-.3.3-.7.2-1-.1-.5-1.3-3.2-1.6-3.8-.2-.3-.4-.4-.7-.5h-1.1c-.2 0-.4.1-.6.1l-.1.1c-.2.1-.4.3-.6.4-.2.2-.3.4-.5.6-.7.9-1.1 2-1.1 3.1 0 .8.2 1.6.5 2.3l.1.3c.9 1.9 2.1 3.6 3.7 5.1l.4.4c.3.3.6.5.8.8 2.1 1.8 4.5 3.1 7.2 3.8.3.1.7.1 1 .2h1c.5 0 1.1-.2 1.5-.4.3-.2.5-.2.7-.4l.2-.2c.2-.2.4-.3.6-.5s.4-.4.5-.6c.2-.4.3-.9.4-1.4v-.7s-.1-.1-.3-.2z"
      ></path>
    </symbol>


    <symbol id="landing-menu">
    <rect fill="#f2f2f2" height="24" rx="3" width="24"></rect>
                  <path
                    d="m12 15.5c.825 0 1.5.675 1.5 1.5s-.675 1.5-1.5 1.5-1.5-.675-1.5-1.5.675-1.5 1.5-1.5zm0-2c-.825 0-1.5-.675-1.5-1.5s.675-1.5 1.5-1.5 1.5.675 1.5 1.5-.675 1.5-1.5 1.5zm0-5c-.825 0-1.5-.675-1.5-1.5s.675-1.5 1.5-1.5 1.5.675 1.5 1.5-.675 1.5-1.5 1.5z"
                    fill="#818b90"
                  ></path>
    </symbol>

    <symbol id="landing-setting">
    <rect fill="#F2F2F2" width="24" height="24" rx="3"></rect>
                  <path
                    d="M12 18.69c-1.08 0-2.1-.25-2.99-.71L11.43 14c.24.06.4.08.56.08.92 0 1.67-.59 1.99-1.59h4.62c-.26 3.49-3.05 6.2-6.6 6.2zm-1.04-6.67c0-.57.48-1.02 1.03-1.02.57 0 1.05.45 1.05 1.02 0 .57-.47 1.03-1.05 1.03-.54.01-1.03-.46-1.03-1.03zM5.4 12c0-2.29 1.08-4.28 2.78-5.49l2.39 4.08c-.42.42-.64.91-.64 1.44 0 .52.21 1 .65 1.44l-2.44 4C6.47 16.26 5.4 14.27 5.4 12zm8.57-.49c-.33-.97-1.08-1.54-1.99-1.54-.16 0-.32.02-.57.08L9.04 5.99c.89-.44 1.89-.69 2.96-.69 3.56 0 6.36 2.72 6.59 6.21h-4.62zM12 19.8c.22 0 .42-.02.65-.04l.44.84c.08.18.25.27.47.24.21-.03.33-.17.36-.38l.14-.93c.41-.11.82-.27 1.21-.44l.69.61c.15.15.33.17.54.07.17-.1.24-.27.2-.48l-.2-.92c.35-.24.69-.52.99-.82l.86.36c.2.08.37.05.53-.14.14-.15.15-.34.03-.52l-.5-.8c.25-.35.45-.73.63-1.12l.95.05c.21.01.37-.09.44-.29.07-.2.01-.38-.16-.51l-.73-.58c.1-.4.19-.83.22-1.27l.89-.28c.2-.07.31-.22.31-.43s-.11-.35-.31-.42l-.89-.28c-.03-.44-.12-.86-.22-1.27l.73-.59c.16-.12.22-.29.16-.5-.07-.2-.23-.31-.44-.29l-.95.04c-.18-.4-.39-.77-.63-1.12l.5-.8c.12-.17.1-.36-.03-.51-.16-.18-.33-.22-.53-.14l-.86.35c-.31-.3-.65-.58-.99-.82l.2-.91c.03-.22-.03-.4-.2-.49-.18-.1-.34-.09-.48.01l-.74.66c-.39-.18-.8-.32-1.21-.43l-.14-.93a.426.426 0 00-.36-.39c-.22-.03-.39.05-.47.22l-.44.84-.43-.02h-.22c-.22 0-.42.01-.65.03l-.44-.84c-.08-.17-.25-.25-.48-.22-.2.03-.33.17-.36.39l-.13.88c-.42.12-.83.26-1.22.44l-.69-.61c-.15-.15-.33-.17-.53-.06-.18.09-.24.26-.2.49l.2.91c-.36.24-.7.52-1 .82l-.86-.35c-.19-.09-.37-.05-.52.13-.14.15-.16.34-.04.51l.5.8c-.25.35-.45.72-.64 1.12l-.94-.04c-.21-.01-.37.1-.44.3-.07.2-.02.38.16.5l.73.59c-.1.41-.19.83-.22 1.27l-.89.29c-.21.07-.31.21-.31.42 0 .22.1.36.31.43l.89.28c.03.44.1.87.22 1.27l-.73.58c-.17.12-.22.31-.16.51.07.2.23.31.44.29l.94-.05c.18.39.39.77.63 1.12l-.5.8c-.12.18-.1.37.04.52.16.18.33.22.52.14l.86-.36c.3.31.64.58.99.82l-.2.92c-.04.22.03.39.2.49.2.1.38.08.54-.07l.69-.61c.39.17.8.33 1.21.44l.13.93c.03.21.16.35.37.39.22.03.39-.06.47-.24l.44-.84c.23.02.44.04.66.04z"
                    fill="#818b90"
                  ></path>
    </symbol>


<!-- Main window -->


  <symbol id="default-user">
  <title>default-user</title>
              <path
                fill="#DFE5E7"
                class="background"
                d="M106.251,0.5C164.653,0.5,212,47.846,212,106.25S164.653,212,106.25,212C47.846,212,0.5,164.654,0.5,106.25 S47.846,0.5,106.251,0.5z"
              ></path>
              <g>
                <path
                  fill="#FFFFFF"
                  class="primary"
                  d="M173.561,171.615c-0.601-0.915-1.287-1.907-2.065-2.955c-0.777-1.049-1.645-2.155-2.608-3.299 c-0.964-1.144-2.024-2.326-3.184-3.527c-1.741-1.802-3.71-3.646-5.924-5.47c-2.952-2.431-6.339-4.824-10.204-7.026 c-1.877-1.07-3.873-2.092-5.98-3.055c-0.062-0.028-0.118-0.059-0.18-0.087c-9.792-4.44-22.106-7.529-37.416-7.529 s-27.624,3.089-37.416,7.529c-0.338,0.153-0.653,0.318-0.985,0.474c-1.431,0.674-2.806,1.376-4.128,2.101 c-0.716,0.393-1.417,0.792-2.101,1.197c-3.421,2.027-6.475,4.191-9.15,6.395c-2.213,1.823-4.182,3.668-5.924,5.47 c-1.161,1.201-2.22,2.384-3.184,3.527c-0.964,1.144-1.832,2.25-2.609,3.299c-0.778,1.049-1.464,2.04-2.065,2.955 c-0.557,0.848-1.033,1.622-1.447,2.324c-0.033,0.056-0.073,0.119-0.104,0.174c-0.435,0.744-0.79,1.392-1.07,1.926 c-0.559,1.068-0.818,1.678-0.818,1.678v0.398c18.285,17.927,43.322,28.985,70.945,28.985c27.678,0,52.761-11.103,71.055-29.095 v-0.289c0,0-0.619-1.45-1.992-3.778C174.594,173.238,174.117,172.463,173.561,171.615z"
                ></path>
                <path
                  fill="#FFFFFF"
                  class="primary"
                  d="M106.002,125.5c2.645,0,5.212-0.253,7.68-0.737c1.234-0.242,2.443-0.542,3.624-0.896 c1.772-0.532,3.482-1.188,5.12-1.958c2.184-1.027,4.242-2.258,6.15-3.67c2.863-2.119,5.39-4.646,7.509-7.509 c0.706-0.954,1.367-1.945,1.98-2.971c0.919-1.539,1.729-3.155,2.422-4.84c0.462-1.123,0.872-2.277,1.226-3.458 c0.177-0.591,0.341-1.188,0.49-1.792c0.299-1.208,0.542-2.443,0.725-3.701c0.275-1.887,0.417-3.827,0.417-5.811 c0-1.984-0.142-3.925-0.417-5.811c-0.184-1.258-0.426-2.493-0.725-3.701c-0.15-0.604-0.313-1.202-0.49-1.793 c-0.354-1.181-0.764-2.335-1.226-3.458c-0.693-1.685-1.504-3.301-2.422-4.84c-0.613-1.026-1.274-2.017-1.98-2.971 c-2.119-2.863-4.646-5.39-7.509-7.509c-1.909-1.412-3.966-2.643-6.15-3.67c-1.638-0.77-3.348-1.426-5.12-1.958 c-1.181-0.355-2.39-0.655-3.624-0.896c-2.468-0.484-5.035-0.737-7.68-0.737c-21.162,0-37.345,16.183-37.345,37.345 C68.657,109.317,84.84,125.5,106.002,125.5z"
                ></path>
              </g>
  </symbol>


  <symbol id="community-icon">
  
              <title>community-outline</title>
              <path
                fill-rule="evenodd"
                clip-rule="evenodd"
                d="M6.37092 18.6728C6.22765 18.5403 6.10431 18.3762 6.00888 18.1973C5.88011 17.9559 5.80217 17.6876 5.79472 17.4335C5.77992 16.9291 5.75694 15.9341 5.81691 15.4918C5.84367 15.2944 5.89021 15.111 5.95079 14.9421C6.02312 14.7405 6.11792 14.5597 6.22835 14.3977C6.44698 14.077 6.72688 13.8296 7.01486 13.6386C7.04895 13.616 7.08314 13.5941 7.11736 13.5731C7.57933 13.2888 8.09602 13.1117 8.52831 12.9865C8.90306 12.878 9.34961 12.7693 9.85702 12.6823C10.485 12.5746 11.2062 12.5001 12 12.5001C12.7937 12.5001 13.5149 12.5746 14.1429 12.6823C14.6503 12.7693 15.0969 12.878 15.4716 12.9865C15.9039 13.1117 16.4206 13.2888 16.8826 13.5731C16.9168 13.5941 16.951 13.616 16.9851 13.6386C17.2731 13.8296 17.553 14.077 17.7716 14.3977C17.882 14.5597 17.9768 14.7405 18.0492 14.9421C18.1097 15.111 18.1563 15.2944 18.183 15.4918C18.243 15.9341 18.22 16.9291 18.2052 17.4335C18.1978 17.6876 18.1198 17.9559 17.9911 18.1973C17.8956 18.3762 17.7723 18.5403 17.629 18.6729C17.4138 18.872 17.1536 19 16.8756 19H7.12434C6.84632 19 6.58614 18.872 6.37092 18.6728ZM19.9606 15.4041C20.0099 15.9938 20.0031 16.2628 19.992 17C19.9887 17.22 19.985 17.3926 19.9822 17.4856C19.9692 17.9298 19.8643 18.6252 19.6869 19H22.6608C23.3769 19 23.9744 17.1535 23.9908 16.4244C24 16.0153 24.0117 16.2932 23.9736 15.9559C23.8921 15.2339 23.4788 14.7098 23.0245 14.3596C22.5875 14.0227 22.0691 13.8088 21.6087 13.6766C21.6029 13.675 21.5972 13.6733 21.5915 13.6717C21.5881 13.6707 21.5847 13.6698 21.5813 13.6688C21.5228 13.6524 21.4627 13.6362 21.401 13.6205C20.8883 13.49 20.2632 13.389 19.5555 13.389C19.5378 13.389 19.52 13.3891 19.5023 13.3892C19.4137 13.3898 19.3264 13.392 19.2405 13.3957C19.355 13.5637 19.4612 13.7454 19.5555 13.942C19.5647 13.9611 19.5738 13.9805 19.5828 13.9999C19.6332 14.1094 19.68 14.2234 19.7226 14.342C19.8237 14.6239 19.9007 14.9282 19.9447 15.253C19.9506 15.2963 19.9559 15.347 19.9606 15.4041ZM17.9339 11.4492C18.2894 11.7225 18.7156 11.9081 19.1802 11.9737C19.3028 11.991 19.4281 12 19.5555 12C20.1263 12 20.6553 11.8201 21.089 11.5141C21.7744 11.0305 22.2222 10.2319 22.2222 9.33C22.2222 7.85724 21.0283 6.67 19.5555 6.67C18.7591 6.67 18.0441 7.01722 17.5555 7.56905C17.1406 8.03762 16.8889 8.65371 16.8889 9.33C16.8889 9.57007 16.9206 9.80282 16.9801 10.0243C17.1343 10.5986 17.4753 11.0968 17.9339 11.4492ZM14.8977 9.61901C14.9641 9.52593 15.0262 9.42949 15.0835 9.33C15.3838 8.80927 15.5555 8.20499 15.5555 7.56C15.5555 7.36964 15.5406 7.18272 15.5117 7.00038C15.2434 5.30182 13.7733 4 12 4C10.2267 4 8.75657 5.30182 8.4882 7.00038C8.45939 7.18272 8.44443 7.36964 8.44443 7.56C8.44443 8.20499 8.61617 8.80927 8.91642 9.33C8.97378 9.42949 9.03584 9.52593 9.10229 9.61901C9.38894 10.0206 9.75728 10.3599 10.1831 10.6129C10.7148 10.9287 11.3362 11.11 12 11.11C12.6638 11.11 13.2851 10.9287 13.8168 10.6129C14.2427 10.3599 14.611 10.0206 14.8977 9.61901ZM7.01988 10.0243C7.07937 9.80282 7.1111 9.57007 7.1111 9.33C7.1111 8.65371 6.85934 8.03762 6.44443 7.56905C5.95581 7.01722 5.2409 6.67 4.44444 6.67C2.97168 6.67 1.77777 7.85724 1.77777 9.33C1.77777 10.2319 2.22555 11.0305 2.91093 11.5141C3.34469 11.8201 3.87362 12 4.44444 12C4.5718 12 4.6971 11.991 4.8197 11.9737C5.28435 11.9081 5.71054 11.7225 6.06606 11.4492C6.52463 11.0967 6.86561 10.5985 7.01988 10.0243ZM2.599 13.6205C2.53726 13.6362 2.47715 13.6524 2.41872 13.6688C2.41531 13.6698 2.41189 13.6707 2.40848 13.6717C2.40276 13.6733 2.39702 13.675 2.39128 13.6766C1.9309 13.8088 1.41245 14.0227 0.975466 14.3596C0.521192 14.7098 0.107939 15.2339 0.0263682 15.9559C-0.0117388 16.2932 2.95136e-05 17.0153 0.00922726 17.4244C0.0256195 18.1535 0.623061 19 1.33916 19H4.31303C4.13562 18.6252 4.03074 17.9298 4.01771 17.4856C4.01498 17.3926 4.01127 17.22 4.00795 17C3.99682 16.2628 3.99008 15.9938 4.03932 15.4041C4.04409 15.347 4.04938 15.2963 4.05525 15.253C4.09928 14.9282 4.17628 14.6239 4.27738 14.342C4.31992 14.2234 4.36671 14.1094 4.41718 13.9999C4.42615 13.9805 4.43524 13.9612 4.44444 13.942C4.53872 13.7454 4.64492 13.5636 4.7595 13.3957C4.67357 13.392 4.58626 13.3898 4.49762 13.3892C4.47995 13.3891 4.46224 13.389 4.44446 13.389C3.73676 13.389 3.11171 13.49 2.599 13.6205ZM12 14.5001C10.7893 14.5001 9.78078 14.706 9.08457 14.9076C8.70827 15.0166 8.39668 15.1342 8.16548 15.2764C7.94245 15.4137 7.86482 15.5296 7.83338 15.6173C7.81839 15.6591 7.80612 15.7064 7.79878 15.7605C7.79943 15.7557 7.7992 15.7596 7.7984 15.7735C7.79628 15.8102 7.79017 15.9159 7.78551 16.1142C7.77998 16.3491 7.77773 16.6382 7.77778 16.9391C7.77784 17.3256 7.78168 16.7121 7.78618 17H16.2138C16.2183 16.7121 16.2221 17.3256 16.2222 16.9391C16.2222 16.6383 16.22 16.3491 16.2144 16.1142C16.2098 15.9159 16.2037 15.8101 16.2016 15.7735C16.2007 15.7596 16.2005 15.7557 16.2012 15.7605C16.1938 15.7064 16.1816 15.6591 16.1666 15.6173C16.1351 15.5296 16.0575 15.4137 15.8345 15.2764C15.6033 15.1342 15.2917 15.0166 14.9154 14.9076C14.2192 14.706 13.2107 14.5001 12 14.5001ZM12 6C11.1441 6 10.4444 6.69763 10.4444 7.56C10.4444 8.41504 11.1368 9.11 12 9.11C12.8632 9.11 13.5555 8.41504 13.5555 7.56C13.5555 6.69763 12.8558 6 12 6Z"
                fill="currentColor"
              ></path>
  </symbol>

  <symbol id="status-icon">
  <title>status-unread-outline</title>
              <path
                fill-rule="evenodd"
                clip-rule="evenodd"
                d="M3.71672 8.34119C3.23926 8.06362 3.07722 7.45154 3.35479 6.97407C4.33646 5.28548 5.79114 3.92134 7.53925 3.05006C9.28736 2.17878 11.2524 1.83851 13.1916 2.07126C13.74 2.13707 14.1312 2.63494 14.0654 3.18329C13.9995 3.73164 13.5017 4.12282 12.9533 4.05701C11.4019 3.87081 9.82989 4.14303 8.43141 4.84005C7.03292 5.53708 5.86917 6.62839 5.08384 7.97926C4.80626 8.45672 4.19419 8.61876 3.71672 8.34119Z"
                fill="currentColor"
              ></path>
              <path
                fill-rule="evenodd"
                clip-rule="evenodd"
                d="M20.8569 10.115C21.4065 10.0604 21.8963 10.4616 21.9509 11.0112C22.144 12.9548 21.7638 14.9125 20.857 16.6424C19.9503 18.3724 18.5567 19.799 16.8485 20.746C16.3655 21.0138 15.7568 20.8393 15.489 20.3563C15.2213 19.8732 15.3957 19.2646 15.8788 18.9968C17.2454 18.2392 18.3602 17.0979 19.0856 15.714C19.811 14.33 20.1152 12.7639 19.9607 11.209C19.9061 10.6594 20.3073 10.1696 20.8569 10.115Z"
                fill="currentColor"
              ></path>
              <path
                d="M6.34315 17.6568C7.89977 19.2135 9.93829 19.9945 11.9785 20C12.4928 20.0013 12.9654 20.3306 13.0791 20.8322C13.2105 21.4123 12.8147 21.9846 12.22 21.9976C9.58797 22.0552 6.93751 21.0796 4.92893 19.0711C2.90126 17.0434 1.92639 14.3616 2.00433 11.7049C2.02177 11.1104 2.59704 10.7188 3.17612 10.8546C3.67682 10.9721 4.00256 11.4471 4.00009 11.9614C3.99021 14.0216 4.77123 16.0849 6.34315 17.6568Z"
                fill="currentColor"
              ></path>
              <circle cx="19.95" cy="4.05005" r="3" fill="#009588"></circle>
              <path
                fill-rule="evenodd"
                clip-rule="evenodd"
                d="M12 16C14.2091 16 16 14.2091 16 12C16 9.79086 14.2091 8 12 8C9.79086 8 8 9.79086 8 12C8 14.2091 9.79086 16 12 16ZM12 18C15.3137 18 18 15.3137 18 12C18 8.68629 15.3137 6 12 6C8.68629 6 6 8.68629 6 12C6 15.3137 8.68629 18 12 18Z"
                fill="currentColor"
              ></path>
  </symbol>

  <symbol id="newsletter-icon">
  <title>newsletter-unread-outline</title>
              <path
                d="M19 7.5C19.8 7.5 20.56 7.18 21.12 6.62C21.68 6.06 22 5.29 22 4.5C22 3.71 21.68 2.94 21.12 2.38C20.56 1.82 19.79 1.5 19 1.5C18.21 1.5 17.44 1.82 16.88 2.38C16.32 2.94 16 3.71 16 4.5C16 5.29 16.32 6.06 16.88 6.62C17.44 7.18 18.21 7.5 19 7.5Z"
                fill="#009588"
              ></path>
              <path
                fill-rule="evenodd"
                clip-rule="evenodd"
                d="M12 4C7.58172 4 4 7.58172 4 12C4 12.5523 3.55228 13 3 13C2.44772 13 2 12.5523 2 12C2 6.47715 6.47715 2 12 2C12.3748 2 12.7451 2.02066 13.1099 2.06098C13.6588 2.12167 14.0546 2.61586 13.9939 3.1648C13.9333 3.71374 13.4391 4.10956 12.8901 4.04887C12.5982 4.0166 12.3012 4 12 4ZM20.8352 10.0061C21.3841 9.94537 21.8783 10.3412 21.939 10.8901C21.9793 11.2549 22 11.6252 22 12C22 17.5228 17.5228 22 12 22C11.4477 22 11 21.5523 11 21C11 20.4477 11.4477 20 12 20C16.4183 20 20 16.4183 20 12C20 11.6988 19.9834 11.4018 19.9511 11.1099C19.8904 10.5609 20.2863 10.0667 20.8352 10.0061Z"
                fill="currentColor"
              ></path>
              <path
                d="M12 2C6.48 2 2 6.48 2 12C2 13.7 2.43 15.3 3.18 16.7C2.63 18.54 2 20.69 2 21C2 21.55 2.45 22 3 22C3.31 22 5.46 21.37 7.3 20.82C8.7 21.57 10.3 22 12 22C17.52 22 22 17.52 22 12H20C20 16.4154 16.4154 20 12 20C10.6412 20 9.36447 19.6571 8.24444 19.057L7.51743 18.6676L6.72722 18.9038C5.95126 19.1357 5.12931 19.3791 4.41748 19.5825C4.62086 18.8707 4.86428 18.0487 5.09622 17.2728L5.33243 16.4826L4.94296 15.7556C4.34295 14.6355 4 13.3588 4 12C4 7.58457 7.58457 4 12 4V2Z"
                fill="currentColor"
              ></path>
              <path
                d="M15.8301 8.63404C16.3081 8.35745 16.9198 8.52076 17.1964 8.9988C17.7077 9.88244 18 10.9086 18 12C18 13.0914 17.7077 14.1176 17.1964 15.0012C16.9198 15.4792 16.3081 15.6425 15.8301 15.366C15.352 15.0894 15.1887 14.4776 15.4653 13.9996C15.8052 13.4122 16 12.7304 16 12C16 11.2696 15.8052 10.5878 15.4653 10.0004C15.1887 9.52237 15.352 8.91063 15.8301 8.63404Z"
                fill="currentColor"
              ></path>
              <path
                d="M8.16995 8.63404C8.64798 8.91063 8.81129 9.52237 8.5347 10.0004C8.19484 10.5878 8 11.2696 8 12C8 12.7304 8.19484 13.4122 8.5347 13.9996C8.81129 14.4776 8.64798 15.0894 8.16995 15.366C7.69191 15.6425 7.08017 15.4792 6.80358 15.0012C6.29231 14.1176 6 13.0914 6 12C6 10.9086 6.29231 9.88244 6.80358 8.9988C7.08017 8.52076 7.69191 8.35745 8.16995 8.63404Z"
                fill="currentColor"
              ></path>
              <path
                d="M13.5 12C13.5 12.8284 12.8284 13.5 12 13.5C11.1716 13.5 10.5 12.8284 10.5 12C10.5 11.1716 11.1716 10.5 12 10.5C12.8284 10.5 13.5 11.1716 13.5 12Z"
                fill="currentColor"
              ></path>
  </symbol>

  <symbol id="newchat-outline-icon">
   <title>new-chat-outline</title>
              <path
                d="M9.53277 12.9911H11.5086V14.9671C11.5086 15.3999 11.7634 15.8175 12.1762 15.9488C12.8608 16.1661 13.4909 15.6613 13.4909 15.009V12.9911H15.4672C15.9005 12.9911 16.3181 12.7358 16.449 12.3226C16.6659 11.6381 16.1606 11.0089 15.5086 11.0089H13.4909V9.03332C13.4909 8.60007 13.2361 8.18252 12.8233 8.05119C12.1391 7.83391 11.5086 8.33872 11.5086 8.991V11.0089H9.49088C8.83941 11.0089 8.33411 11.6381 8.55097 12.3226C8.68144 12.7358 9.09947 12.9911 9.53277 12.9911Z"
                fill="currentColor"
              ></path>
              <path
                fill-rule="evenodd"
                clip-rule="evenodd"
                d="M0.944298 5.52617L2.99998 8.84848V17.3333C2.99998 18.8061 4.19389 20 5.66665 20H19.3333C20.8061 20 22 18.8061 22 17.3333V6.66667C22 5.19391 20.8061 4 19.3333 4H1.79468C1.01126 4 0.532088 4.85997 0.944298 5.52617ZM4.99998 8.27977V17.3333C4.99998 17.7015 5.29845 18 5.66665 18H19.3333C19.7015 18 20 17.7015 20 17.3333V6.66667C20 6.29848 19.7015 6 19.3333 6H3.58937L4.99998 8.27977Z"
                fill="currentColor"
              ></path>
  </symbol>

  <symbol id="menu-icon">
  <title>menu</title>
              <path
                fill="currentColor"
                d="M12,7c1.104,0,2-0.896,2-2c0-1.105-0.895-2-2-2c-1.104,0-2,0.894-2,2 C10,6.105,10.895,7,12,7z M12,9c-1.104,0-2,0.894-2,2c0,1.104,0.895,2,2,2c1.104,0,2-0.896,2-2C13.999,9.895,13.104,9,12,9z M12,15 c-1.104,0-2,0.894-2,2c0,1.104,0.895,2,2,2c1.104,0,2-0.896,2-2C13.999,15.894,13.104,15,12,15z"
              ></path>
  </symbol>

  <symbol id="x-icon">
    <title>x-alt</title>
            <path
              fill="currentColor"
              d="M17.25,7.8L16.2,6.75l-4.2,4.2l-4.2-4.2L6.75,7.8l4.2,4.2l-4.2,4.2l1.05,1.05l4.2-4.2l4.2,4.2l1.05-1.05 l-4.2-4.2L17.25,7.8z"
            ></path>

  </symbol>
  <symbol id="filter-icon">
   <title>filter</title>
          <path
            fill="currentColor"
            d="M10,18.1h4v-2h-4V18.1z M3,6.1v2h18v-2H3z M6,13.1h12v-2H6V13.1z"
          ></path>

  </symbol>
  <symbol id="search-icon">
  <title>search</title>
            <path
              fill="currentColor"
              d="M15.009,13.805h-0.636l-0.22-0.219c0.781-0.911,1.256-2.092,1.256-3.386 c0-2.876-2.332-5.207-5.207-5.207c-2.876,0-5.208,2.331-5.208,5.207s2.331,5.208,5.208,5.208c1.293,0,2.474-0.474,3.385-1.255 l0.221,0.22v0.635l4.004,3.999l1.194-1.195L15.009,13.805z M10.201,13.805c-1.991,0-3.605-1.614-3.605-3.605 s1.614-3.605,3.605-3.605s3.605,1.614,3.605,3.605S12.192,13.805,10.201,13.805z"
            ></path>

  </symbol>
  <symbol id="back-icon">
    <title>back</title>
            <path
              fill="currentColor"
              d="M12,4l1.4,1.4L7.8,11H20v2H7.8l5.6,5.6L12,20l-8-8L12,4z"
            ></path>

  </symbol>
  <symbol id="down-icon">
   <title>down</title>
                          <path
                            fill="currentColor"
                            d="M3.8,6.7l5.7,5.7l5.7-5.7l1.6,1.6l-7.3,7.2L2.2,8.3L3.8,6.7z"
                          ></path>

  </symbol>
  <symbol id="ultra-search-icon">
  
 <title>search-alt</title>
                <path
                  fill="currentColor"
                  d="M15.9,14.3H15L14.7,14c1-1.1,1.6-2.7,1.6-4.3c0-3.7-3-6.7-6.7-6.7S3,6,3,9.7 s3,6.7,6.7,6.7c1.6,0,3.2-0.6,4.3-1.6l0.3,0.3v0.8l5.1,5.1l1.5-1.5L15.9,14.3z M9.7,14.3c-2.6,0-4.6-2.1-4.6-4.6s2.1-4.6,4.6-4.6 s4.6,2.1,4.6,4.6S12.3,14.3,9.7,14.3z"
                ></path>
  </symbol>
  <symbol id="video-call-icon">
   <title>video-call</title>
                  <path
                    d="M3.27096 7.31042C3 7.82381 3 8.49587 3 9.84V14.16C3 15.5041 3 16.1762 3.27096 16.6896C3.5093 17.1412 3.88961 17.5083 4.35738 17.7384C4.88916 18 5.58531 18 6.9776 18H13.1097C14.502 18 15.1982 18 15.7299 17.7384C16.1977 17.5083 16.578 17.1412 16.8164 16.6896C17.0873 16.1762 17.0873 15.5041 17.0873 14.16V9.84C17.0873 8.49587 17.0873 7.82381 16.8164 7.31042C16.578 6.85883 16.1977 6.49168 15.7299 6.26158C15.1982 6 14.502 6 13.1097 6H6.9776C5.58531 6 4.88916 6 4.35738 6.26158C3.88961 6.49168 3.5093 6.85883 3.27096 7.31042Z"
                    fill="currentColor"
                  ></path>
                  <path
                    d="M18.7308 9.60844C18.5601 9.75994 18.4629 9.97355 18.4629 10.1974V13.8026C18.4629 14.0264 18.5601 14.2401 18.7308 14.3916L20.9567 16.3669C21.4879 16.8384 22.3462 16.4746 22.3462 15.778V8.22203C22.3462 7.52542 21.4879 7.16163 20.9567 7.63306L18.7308 9.60844Z"
                    fill="currentColor"
                  ></path>


  </symbol>
  <symbol id="alt-down-icon">
    <title>chevron-down-alt</title>
                  <path
                    fill="currentColor"
                    d="M3.202,2.5l5.2,5.2l5.2-5.2l1.5,1.5l-6.7,6.5l-6.6-6.6L3.202,2.5z"
                  ></path>


  </symbol>
  <symbol id="attach-icon">
     <title>attach-menu-plus</title>
              <path
                fill-rule="evenodd"
                clip-rule="evenodd"
                d="M20.5 13.2501L20.5 10.7501L13.25 10.7501L13.25 3.5L10.75 3.5L10.75 10.7501L3.5 10.7501L3.5 13.2501L10.75 13.2501L10.75 20.5L13.25 20.5L13.25 13.2501L20.5 13.2501Z"
                fill="currentColor"
              ></path>
  </symbol>
  <symbol id="smiley-icon">
    <title>smiley</title>
              <path
                fill="currentColor"
                d="M9.153,11.603c0.795,0,1.439-0.879,1.439-1.962S9.948,7.679,9.153,7.679 S7.714,8.558,7.714,9.641S8.358,11.603,9.153,11.603z M5.949,12.965c-0.026-0.307-0.131,5.218,6.063,5.551 c6.066-0.25,6.066-5.551,6.066-5.551C12,14.381,5.949,12.965,5.949,12.965z M17.312,14.073c0,0-0.669,1.959-5.051,1.959 c-3.505,0-5.388-1.164-5.607-1.959C6.654,14.073,12.566,15.128,17.312,14.073z M11.804,1.011c-6.195,0-10.826,5.022-10.826,11.217 s4.826,10.761,11.021,10.761S23.02,18.423,23.02,12.228C23.021,6.033,17.999,1.011,11.804,1.011z M12,21.354 c-5.273,0-9.381-3.886-9.381-9.159s3.942-9.548,9.215-9.548s9.548,4.275,9.548,9.548C21.381,17.467,17.273,21.354,12,21.354z  M15.108,11.603c0.795,0,1.439-0.879,1.439-1.962s-0.644-1.962-1.439-1.962s-1.439,0.879-1.439,1.962S14.313,11.603,15.108,11.603z"
              ></path>


  </symbol>
  <symbol id="mic-icon">
   
    <title>ptt</title>
              <path
                fill="currentColor"
                d="M11.999,14.942c2.001,0,3.531-1.53,3.531-3.531V4.35c0-2.001-1.53-3.531-3.531-3.531 S8.469,2.35,8.469,4.35v7.061C8.469,13.412,9.999,14.942,11.999,14.942z M18.237,11.412c0,3.531-2.942,6.002-6.237,6.002 s-6.237-2.471-6.237-6.002H3.761c0,4.001,3.178,7.297,7.061,7.885v3.884h2.354v-3.884c3.884-0.588,7.061-3.884,7.061-7.885 L18.237,11.412z"
              ></path>

  </symbol>

  <symbol id="send-icon">
   
  <title>send</title>
        <path
          fill="currentColor"
          d="M1.101,21.757L23.8,12.028L1.101,2.3l0.011,7.912l13.623,1.816L1.112,13.845 L1.101,21.757z"
        ></path>

  </symbol>




</svg>